<?xml version="1.0"?>
<svg version="1.1" xmlns="http://www.w3.org/2000/svg" width="400" height="200" style=""><path fill="#ff870f" d="M22.40185546875,118.587890625l-4.61669921875,0l0-22.1298828125l12.6845703125,0l0,3.8447265625l-8.06787109375,0l0,5.70654296875l7.5078125,0l0,3.82958984375l-7.5078125,0l0,8.7490234375z M40.244565429688,110.09619140625q0,2.5126953125,0.824951171875,3.79931640625t2.686767578125,1.28662109375q1.8466796875,0,2.656494140625-1.279052734375t0.809814453125-3.806884765625q0-2.5126953125-0.8173828125-3.76904296875t-2.67919921875-1.25634765625q-1.8466796875,0-2.6640625,1.248779296875t-0.8173828125,3.776611328125z M51.945249023437,110.09619140625q0,4.13232421875-2.1796875,6.46337890625t-6.06982421875,2.3310546875q-2.43701171875,0-4.298828125-1.067138671875t-2.86083984375-3.065185546875t-0.9990234375-4.662109375q0-4.1474609375,2.16455078125-6.4482421875t6.0849609375-2.30078125q2.43701171875,0,4.298828125,1.0595703125t2.86083984375,3.04248046875t0.9990234375,4.64697265625z M61.568720703125,110.09619140625q0,2.5126953125,0.824951171875,3.79931640625t2.686767578125,1.28662109375q1.8466796875,0,2.656494140625-1.279052734375t0.809814453125-3.806884765625q0-2.5126953125-0.8173828125-3.76904296875t-2.67919921875-1.25634765625q-1.8466796875,0-2.6640625,1.248779296875t-0.8173828125,3.776611328125z M73.269404296875,110.09619140625q0,4.13232421875-2.1796875,6.46337890625t-6.06982421875,2.3310546875q-2.43701171875,0-4.298828125-1.067138671875t-2.86083984375-3.065185546875t-0.9990234375-4.662109375q0-4.1474609375,2.16455078125-6.4482421875t6.0849609375-2.30078125q2.43701171875,0,4.298828125,1.0595703125t2.86083984375,3.04248046875t0.9990234375,4.64697265625z M84.573051757813,118.890625q-2.98193359375,0-4.684814453125-2.31591796875t-1.702880859375-6.41796875q0-4.16259765625,1.733154296875-6.486083984375t4.775634765625-2.323486328125q3.19384765625,0,4.8740234375,2.482421875l0.1513671875,0q-0.34814453125-1.89208984375-0.34814453125-3.37548828125l0-5.4189453125l4.6318359375,0l0,23.552734375l-3.5419921875,0l-0.89306640625-2.19482421875l-0.19677734375,0q-1.57421875,2.49755859375-4.79833984375,2.49755859375z M86.192680664063,115.21240234375q1.77099609375,0,2.595947265625-1.029296875t0.900634765625-3.49658203125l0-0.49951171875q0-2.724609375-0.840087890625-3.9052734375t-2.732177734375-1.1806640625q-1.5439453125,0-2.399169921875,1.309326171875t-0.855224609375,3.806884765625t0.86279296875,3.746337890625t2.46728515625,1.248779296875z M131.97429199219,118.587890625l-5.70654296875,0l-1.74072265625-1.71044921875q-2.89111328125,2.01318359375-6.5390625,2.01318359375q-3.693359375,0-5.85791015625-1.6953125t-2.16455078125-4.58642578125q0-2.07373046875,0.915771484375-3.534423828125t3.140869140625-2.732177734375q-1.13525390625-1.3017578125-1.64990234375-2.489990234375t-0.5146484375-2.595947265625q0-2.30078125,1.763427734375-3.70849609375t4.715087890625-1.40771484375q2.8154296875,0,4.503173828125,1.309326171875t1.687744140625,3.504150390625q0,1.80126953125-1.04443359375,3.292236328125t-3.37548828125,2.838134765625l4.298828125,4.19287109375q1.07470703125-1.77099609375,1.86181640625-4.55615234375l4.8134765625,0q-0.544921875,2.04345703125-1.49853515625,3.988525390625t-2.16455078125,3.443603515625z M114.82438964844,112.169921875q0,1.3017578125,0.976318359375,2.07373046875t2.505126953125,0.77197265625q1.9072265625,0,3.43603515625-0.92333984375l-5.025390625-4.9951171875q-0.8779296875,0.666015625-1.385009765625,1.392578125t-0.507080078125,1.68017578125z M120.25847167969,101.43798828125q0-0.80224609375-0.544921875-1.263916015625t-1.40771484375-0.461669921875q-1.01416015625,0-1.596923828125,0.484375t-0.582763671875,1.37744140625q0,1.33203125,1.43798828125,2.9365234375q1.3017578125-0.7265625,1.998046875-1.430419921875t0.6962890625-1.642333984375z M151.69047363281,118.587890625l-4.61669921875,0l0-22.1298828125l12.6845703125,0l0,3.8447265625l-8.06787109375,0l0,5.70654296875l7.5078125,0l0,3.82958984375l-7.5078125,0l0,8.7490234375z M177.8432421875,118.587890625l-0.62060546875-2.16455078125l-0.2421875,0q-0.74169921875,1.1806640625-2.10400390625,1.823974609375t-3.10302734375,0.643310546875q-2.98193359375,0-4.49560546875-1.596923828125t-1.513671875-4.593994140625l0-11.03466796875l4.61669921875,0l0,9.88427734375q0,1.83154296875,0.65087890625,2.747314453125t2.07373046875,0.915771484375q1.9375,0,2.80029296875-1.294189453125t0.86279296875-4.291259765625l0-7.9619140625l4.61669921875,0l0,16.9228515625l-3.5419921875,0z M203.98087402344,118.587890625l-4.61669921875,0l0-9.88427734375q0-1.83154296875-0.65087890625-2.747314453125t-2.07373046875-0.915771484375q-1.9375,0-2.80029296875,1.294189453125t-0.86279296875,4.291259765625l0,7.9619140625l-4.61669921875,0l0-16.9228515625l3.52685546875,0l0.62060546875,2.16455078125l0.25732421875,0q0.77197265625-1.22607421875,2.126708984375-1.854248046875t3.080322265625-0.628173828125q2.95166015625,0,4.48046875,1.596923828125t1.52880859375,4.609130859375l0,11.03466796875z"/><path fill="#" d=""/></svg>
